<svg width="400" height="400" viewBox="0 0 400 400" fill="none" xmlns="http://www.w3.org/2000/svg">
<g filter="url(#filter0_d_2:13)">
<circle cx="185" cy="185" r="175" fill="black" fill-opacity="0.25"/>
<path d="M182.2 192.6C182.067 195 181.067 197.067 179.2 198.8C177.333 200.4 175.133 201.2 172.6 201.2H102.2C103.133 210.933 106.8 218.733 113.2 224.6C119.733 230.467 127.667 233.4 137 233.4C143.4 233.4 148.6 232.467 152.6 230.6C156.6 228.733 160.133 226.333 163.2 223.4C165.2 222.2 167.133 221.6 169 221.6C171.267 221.6 173.133 222.4 174.6 224C176.2 225.6 177 227.467 177 229.6C177 232.4 175.667 234.933 173 237.2C169.133 241.067 164 244.333 157.6 247C151.2 249.667 144.667 251 138 251C127.2 251 117.667 248.733 109.4 244.2C101.267 239.667 94.9333 233.333 90.4 225.2C86 217.067 83.8 207.867 83.8 197.6C83.8 186.4 86.0667 176.6 90.6 168.2C95.2667 159.667 101.333 153.133 108.8 148.6C116.4 144.067 124.533 141.8 133.2 141.8C141.733 141.8 149.733 144 157.2 148.4C164.667 152.8 170.667 158.867 175.2 166.6C179.733 174.333 182.067 183 182.2 192.6ZM133.2 159.4C125.733 159.4 119.267 161.533 113.8 165.8C108.333 169.933 104.733 176.4 103 185.2H162V183.6C161.333 176.533 158.133 170.733 152.4 166.2C146.8 161.667 140.4 159.4 133.2 159.4ZM279.877 234.2C281.343 235.8 282.077 237.667 282.077 239.8C282.077 242.467 281.077 244.8 279.077 246.8C277.077 248.667 274.877 249.6 272.477 249.6C269.41 249.6 266.81 248.2 264.677 245.4L237.877 211.6L211.477 245.4C210.543 246.733 209.41 247.733 208.077 248.4C206.743 249.067 205.343 249.4 203.877 249.4C201.61 249.4 199.477 248.6 197.477 247C195.61 245.267 194.677 243.267 194.677 241C194.677 238.6 195.41 236.6 196.877 235L226.877 197.6L196.077 158.8C194.743 157.067 194.077 155.2 194.077 153.2C194.077 150.533 195.01 148.267 196.877 146.4C198.877 144.533 201.143 143.6 203.677 143.6C206.877 143.6 209.477 144.933 211.477 147.6L238.877 182.2L264.677 147.8C266.677 145 269.21 143.6 272.277 143.6C274.81 143.6 276.943 144.467 278.677 146.2C280.41 147.8 281.277 149.733 281.277 152C281.277 154.533 280.543 156.6 279.077 158.2L249.477 195.6L279.877 234.2Z" fill="white"/>
</g>
<defs>
<filter id="filter0_d_2:13" x="0" y="0" width="400" height="400" filterUnits="userSpaceOnUse" color-interpolation-filters="sRGB">
<feFlood flood-opacity="0" result="BackgroundImageFix"/>
<feColorMatrix in="SourceAlpha" type="matrix" values="0 0 0 0 0 0 0 0 0 0 0 0 0 0 0 0 0 0 127 0" result="hardAlpha"/>
<feOffset dx="15" dy="15"/>
<feGaussianBlur stdDeviation="12.5"/>
<feColorMatrix type="matrix" values="0 0 0 0 0.3875 0 0 0 0 0.3875 0 0 0 0 0.3875 0 0 0 0.25 0"/>
<feBlend mode="normal" in2="BackgroundImageFix" result="effect1_dropShadow_2:13"/>
<feBlend mode="normal" in="SourceGraphic" in2="effect1_dropShadow_2:13" result="shape"/>
</filter>
</defs>
</svg>
